<svg xmlns="http://www.w3.org/2000/svg" width="48" height="48" fill="none" viewBox="0 0 48 48"><path fill="#E1E9F4" d="M10 5H38V43H10V5Z"/><path fill="#181F25" fill-rule="evenodd" d="M36.5 5.5H11.5C10.9477 5.5 10.5 5.94772 10.5 6.5V41.5C10.5 42.0523 10.9477 42.5 11.5 42.5H36.5C37.0523 42.5 37.5 42.0523 37.5 41.5V6.5C37.5 5.94771 37.0523 5.5 36.5 5.5ZM11.5 4C10.1193 4 9 5.11929 9 6.5V41.5C9 42.8807 10.1193 44 11.5 44H36.5C37.8807 44 39 42.8807 39 41.5V6.5C39 5.11929 37.8807 4 36.5 4H11.5Z" clip-rule="evenodd"/><g filter="url(#filter0_f_157_6990)"><path fill="#66500F" fill-opacity=".3" d="M16 16.5H21L-nan -nanL21 16.5C21 16.7761 20.7761 17 20.5 17H16.5C16.2239 17 16 16.7761 16 16.5L-nan -nanL16 16.5Z"/></g><g filter="url(#filter1_f_157_6990)"><path fill="url(#paint0_linear_157_6990)" fill-opacity=".1" d="M16 13.3125C16 13.1399 16.1399 13 16.3125 13H17.25C17.4747 13 17.6592 13 17.8345 13.25H20.5C20.7761 13.25 21 13.4739 21 13.75V16.6875C21 16.8601 20.8601 17 20.6875 17H16.3125C16.1399 17 16 16.8601 16 16.6875V13.3125Z"/></g><path fill="url(#paint1_linear_157_6990)" d="M16 13.75C16 13.4739 16.2239 13.25 16.5 13.25H20.5C20.7761 13.25 21 13.4739 21 13.75V16.5C21 16.7761 20.7761 17 20.5 17H16.5C16.2239 17 16 16.7761 16 16.5V13.75Z"/><path fill="url(#paint2_linear_157_6990)" d="M16.3125 14.125C16.3125 13.8489 16.5364 13.625 16.8125 13.625H20.1875C20.4636 13.625 20.6875 13.8489 20.6875 14.125V16.5C20.6875 16.7761 20.4636 17 20.1875 17H16.8125C16.5364 17 16.3125 16.7761 16.3125 16.5V14.125Z"/><g filter="url(#filter2_i_157_6990)"><path fill="url(#paint3_linear_157_6990)" d="M16.3125 13C16.1399 13 16 13.1399 16 13.3125V16.6875C16 16.8601 16.1399 17 16.3125 17H20.6875C20.8601 17 21 16.8601 21 16.6875V14.25C21 14.0774 20.8601 13.9375 20.6875 13.9375H18.4965C18.3071 13.9375 18.134 13.8305 18.0493 13.6611L17.875 13.3125C17.6875 13 17.492 13 17.25 13H16.3125Z"/></g><g filter="url(#filter3_f_157_6990)"><path fill="#66500F" fill-opacity=".3" d="M27 16.5H32L-nan -nanL32 16.5C32 16.7761 31.7761 17 31.5 17H27.5C27.2239 17 27 16.7761 27 16.5L-nan -nanL27 16.5Z"/></g><g filter="url(#filter4_f_157_6990)"><path fill="url(#paint4_linear_157_6990)" fill-opacity=".1" d="M27 13.3125C27 13.1399 27.1399 13 27.3125 13H28.25C28.4747 13 28.6592 13 28.8345 13.25H31.5C31.7761 13.25 32 13.4739 32 13.75V16.6875C32 16.8601 31.8601 17 31.6875 17H27.3125C27.1399 17 27 16.8601 27 16.6875V13.3125Z"/></g><path fill="url(#paint5_linear_157_6990)" d="M27 13.75C27 13.4739 27.2239 13.25 27.5 13.25H31.5C31.7761 13.25 32 13.4739 32 13.75V16.5C32 16.7761 31.7761 17 31.5 17H27.5C27.2239 17 27 16.7761 27 16.5V13.75Z"/><path fill="url(#paint6_linear_157_6990)" d="M27.3125 14.125C27.3125 13.8489 27.5364 13.625 27.8125 13.625H31.1875C31.4636 13.625 31.6875 13.8489 31.6875 14.125V16.5C31.6875 16.7761 31.4636 17 31.1875 17H27.8125C27.5364 17 27.3125 16.7761 27.3125 16.5V14.125Z"/><g filter="url(#filter5_i_157_6990)"><path fill="url(#paint7_linear_157_6990)" d="M27.3125 13C27.1399 13 27 13.1399 27 13.3125V16.6875C27 16.8601 27.1399 17 27.3125 17H31.6875C31.8601 17 32 16.8601 32 16.6875V14.25C32 14.0774 31.8601 13.9375 31.6875 13.9375H29.4965C29.3071 13.9375 29.134 13.8305 29.0493 13.6611L28.875 13.3125C28.6875 13 28.492 13 28.25 13H27.3125Z"/></g><g filter="url(#filter6_f_157_6990)"><path fill="#66500F" fill-opacity=".3" d="M16 26.5H21L-nan -nanL21 26.5C21 26.7761 20.7761 27 20.5 27H16.5C16.2239 27 16 26.7761 16 26.5L-nan -nanL16 26.5Z"/></g><g filter="url(#filter7_f_157_6990)"><path fill="url(#paint8_linear_157_6990)" fill-opacity=".1" d="M16 23.3125C16 23.1399 16.1399 23 16.3125 23H17.25C17.4747 23 17.6592 23 17.8345 23.25H20.5C20.7761 23.25 21 23.4739 21 23.75V26.6875C21 26.8601 20.8601 27 20.6875 27H16.3125C16.1399 27 16 26.8601 16 26.6875V23.3125Z"/></g><path fill="url(#paint9_linear_157_6990)" d="M16 23.75C16 23.4739 16.2239 23.25 16.5 23.25H20.5C20.7761 23.25 21 23.4739 21 23.75V26.5C21 26.7761 20.7761 27 20.5 27H16.5C16.2239 27 16 26.7761 16 26.5V23.75Z"/><path fill="url(#paint10_linear_157_6990)" d="M16.3125 24.125C16.3125 23.8489 16.5364 23.625 16.8125 23.625H20.1875C20.4636 23.625 20.6875 23.8489 20.6875 24.125V26.5C20.6875 26.7761 20.4636 27 20.1875 27H16.8125C16.5364 27 16.3125 26.7761 16.3125 26.5V24.125Z"/><g filter="url(#filter8_i_157_6990)"><path fill="url(#paint11_linear_157_6990)" d="M16.3125 23C16.1399 23 16 23.1399 16 23.3125V26.6875C16 26.8601 16.1399 27 16.3125 27H20.6875C20.8601 27 21 26.8601 21 26.6875V24.25C21 24.0774 20.8601 23.9375 20.6875 23.9375H18.4965C18.3071 23.9375 18.134 23.8305 18.0493 23.6611L17.875 23.3125C17.6875 23 17.492 23 17.25 23H16.3125Z"/></g><g filter="url(#filter9_f_157_6990)"><path fill="#66500F" fill-opacity=".3" d="M27 26.5H32L-nan -nanL32 26.5C32 26.7761 31.7761 27 31.5 27H27.5C27.2239 27 27 26.7761 27 26.5L-nan -nanL27 26.5Z"/></g><g filter="url(#filter10_f_157_6990)"><path fill="url(#paint12_linear_157_6990)" fill-opacity=".1" d="M27 23.3125C27 23.1399 27.1399 23 27.3125 23H28.25C28.4747 23 28.6592 23 28.8345 23.25H31.5C31.7761 23.25 32 23.4739 32 23.75V26.6875C32 26.8601 31.8601 27 31.6875 27H27.3125C27.1399 27 27 26.8601 27 26.6875V23.3125Z"/></g><path fill="url(#paint13_linear_157_6990)" d="M27 23.75C27 23.4739 27.2239 23.25 27.5 23.25H31.5C31.7761 23.25 32 23.4739 32 23.75V26.5C32 26.7761 31.7761 27 31.5 27H27.5C27.2239 27 27 26.7761 27 26.5V23.75Z"/><path fill="url(#paint14_linear_157_6990)" d="M27.3125 24.125C27.3125 23.8489 27.5364 23.625 27.8125 23.625H31.1875C31.4636 23.625 31.6875 23.8489 31.6875 24.125V26.5C31.6875 26.7761 31.4636 27 31.1875 27H27.8125C27.5364 27 27.3125 26.7761 27.3125 26.5V24.125Z"/><g filter="url(#filter11_i_157_6990)"><path fill="url(#paint15_linear_157_6990)" d="M27.3125 23C27.1399 23 27 23.1399 27 23.3125V26.6875C27 26.8601 27.1399 27 27.3125 27H31.6875C31.8601 27 32 26.8601 32 26.6875V24.25C32 24.0774 31.8601 23.9375 31.6875 23.9375H29.4965C29.3071 23.9375 29.134 23.8305 29.0493 23.6611L28.875 23.3125C28.6875 23 28.492 23 28.25 23H27.3125Z"/></g><path fill="#181F25" d="M25 41C25 41.5523 24.5523 42 24 42C23.4477 42 23 41.5523 23 41C23 40.4477 23.4477 40 24 40C24.5523 40 25 40.4477 25 41Z"/><path fill="#181F25" d="M20.5 5.5H27.5C27.5 6.05228 27.0523 6.5 26.5 6.5H21.5C20.9477 6.5 20.5 6.05228 20.5 5.5Z"/><defs><filter id="filter0_f_157_6990" width="13" height="8.5" x="12" y="12.5" color-interpolation-filters="sRGB" filterUnits="userSpaceOnUse"><feFlood flood-opacity="0" result="BackgroundImageFix"/><feBlend in="SourceGraphic" in2="BackgroundImageFix" mode="normal" result="shape"/><feGaussianBlur result="effect1_foregroundBlur_157_6990" stdDeviation="2"/></filter><filter id="filter1_f_157_6990" width="11" height="10" x="13" y="10" color-interpolation-filters="sRGB" filterUnits="userSpaceOnUse"><feFlood flood-opacity="0" result="BackgroundImageFix"/><feBlend in="SourceGraphic" in2="BackgroundImageFix" mode="normal" result="shape"/><feGaussianBlur result="effect1_foregroundBlur_157_6990" stdDeviation="1.5"/></filter><filter id="filter2_i_157_6990" width="5" height="5" x="16" y="13" color-interpolation-filters="sRGB" filterUnits="userSpaceOnUse"><feFlood flood-opacity="0" result="BackgroundImageFix"/><feBlend in="SourceGraphic" in2="BackgroundImageFix" mode="normal" result="shape"/><feColorMatrix in="SourceAlpha" result="hardAlpha" type="matrix" values="0 0 0 0 0 0 0 0 0 0 0 0 0 0 0 0 0 0 127 0"/><feOffset dy="1"/><feGaussianBlur stdDeviation="1.5"/><feComposite in2="hardAlpha" k2="-1" k3="1" operator="arithmetic"/><feColorMatrix type="matrix" values="0 0 0 0 1 0 0 0 0 1 0 0 0 0 1 0 0 0 0.35 0"/><feBlend in2="shape" mode="normal" result="effect1_innerShadow_157_6990"/></filter><filter id="filter3_f_157_6990" width="13" height="8.5" x="23" y="12.5" color-interpolation-filters="sRGB" filterUnits="userSpaceOnUse"><feFlood flood-opacity="0" result="BackgroundImageFix"/><feBlend in="SourceGraphic" in2="BackgroundImageFix" mode="normal" result="shape"/><feGaussianBlur result="effect1_foregroundBlur_157_6990" stdDeviation="2"/></filter><filter id="filter4_f_157_6990" width="11" height="10" x="24" y="10" color-interpolation-filters="sRGB" filterUnits="userSpaceOnUse"><feFlood flood-opacity="0" result="BackgroundImageFix"/><feBlend in="SourceGraphic" in2="BackgroundImageFix" mode="normal" result="shape"/><feGaussianBlur result="effect1_foregroundBlur_157_6990" stdDeviation="1.5"/></filter><filter id="filter5_i_157_6990" width="5" height="5" x="27" y="13" color-interpolation-filters="sRGB" filterUnits="userSpaceOnUse"><feFlood flood-opacity="0" result="BackgroundImageFix"/><feBlend in="SourceGraphic" in2="BackgroundImageFix" mode="normal" result="shape"/><feColorMatrix in="SourceAlpha" result="hardAlpha" type="matrix" values="0 0 0 0 0 0 0 0 0 0 0 0 0 0 0 0 0 0 127 0"/><feOffset dy="1"/><feGaussianBlur stdDeviation="1.5"/><feComposite in2="hardAlpha" k2="-1" k3="1" operator="arithmetic"/><feColorMatrix type="matrix" values="0 0 0 0 1 0 0 0 0 1 0 0 0 0 1 0 0 0 0.35 0"/><feBlend in2="shape" mode="normal" result="effect1_innerShadow_157_6990"/></filter><filter id="filter6_f_157_6990" width="13" height="8.5" x="12" y="22.5" color-interpolation-filters="sRGB" filterUnits="userSpaceOnUse"><feFlood flood-opacity="0" result="BackgroundImageFix"/><feBlend in="SourceGraphic" in2="BackgroundImageFix" mode="normal" result="shape"/><feGaussianBlur result="effect1_foregroundBlur_157_6990" stdDeviation="2"/></filter><filter id="filter7_f_157_6990" width="11" height="10" x="13" y="20" color-interpolation-filters="sRGB" filterUnits="userSpaceOnUse"><feFlood flood-opacity="0" result="BackgroundImageFix"/><feBlend in="SourceGraphic" in2="BackgroundImageFix" mode="normal" result="shape"/><feGaussianBlur result="effect1_foregroundBlur_157_6990" stdDeviation="1.5"/></filter><filter id="filter8_i_157_6990" width="5" height="5" x="16" y="23" color-interpolation-filters="sRGB" filterUnits="userSpaceOnUse"><feFlood flood-opacity="0" result="BackgroundImageFix"/><feBlend in="SourceGraphic" in2="BackgroundImageFix" mode="normal" result="shape"/><feColorMatrix in="SourceAlpha" result="hardAlpha" type="matrix" values="0 0 0 0 0 0 0 0 0 0 0 0 0 0 0 0 0 0 127 0"/><feOffset dy="1"/><feGaussianBlur stdDeviation="1.5"/><feComposite in2="hardAlpha" k2="-1" k3="1" operator="arithmetic"/><feColorMatrix type="matrix" values="0 0 0 0 1 0 0 0 0 1 0 0 0 0 1 0 0 0 0.35 0"/><feBlend in2="shape" mode="normal" result="effect1_innerShadow_157_6990"/></filter><filter id="filter9_f_157_6990" width="13" height="8.5" x="23" y="22.5" color-interpolation-filters="sRGB" filterUnits="userSpaceOnUse"><feFlood flood-opacity="0" result="BackgroundImageFix"/><feBlend in="SourceGraphic" in2="BackgroundImageFix" mode="normal" result="shape"/><feGaussianBlur result="effect1_foregroundBlur_157_6990" stdDeviation="2"/></filter><filter id="filter10_f_157_6990" width="11" height="10" x="24" y="20" color-interpolation-filters="sRGB" filterUnits="userSpaceOnUse"><feFlood flood-opacity="0" result="BackgroundImageFix"/><feBlend in="SourceGraphic" in2="BackgroundImageFix" mode="normal" result="shape"/><feGaussianBlur result="effect1_foregroundBlur_157_6990" stdDeviation="1.5"/></filter><filter id="filter11_i_157_6990" width="5" height="5" x="27" y="23" color-interpolation-filters="sRGB" filterUnits="userSpaceOnUse"><feFlood flood-opacity="0" result="BackgroundImageFix"/><feBlend in="SourceGraphic" in2="BackgroundImageFix" mode="normal" result="shape"/><feColorMatrix in="SourceAlpha" result="hardAlpha" type="matrix" values="0 0 0 0 0 0 0 0 0 0 0 0 0 0 0 0 0 0 127 0"/><feOffset dy="1"/><feGaussianBlur stdDeviation="1.5"/><feComposite in2="hardAlpha" k2="-1" k3="1" operator="arithmetic"/><feColorMatrix type="matrix" values="0 0 0 0 1 0 0 0 0 1 0 0 0 0 1 0 0 0 0.35 0"/><feBlend in2="shape" mode="normal" result="effect1_innerShadow_157_6990"/></filter><linearGradient id="paint0_linear_157_6990" x1="16.792" x2="18.694" y1="13.308" y2="15.422" gradientUnits="userSpaceOnUse"><stop stop-color="#26629E"/><stop offset="1" stop-color="#15395E"/></linearGradient><linearGradient id="paint1_linear_157_6990" x1="16.982" x2="17.573" y1="13.537" y2="15.098" gradientUnits="userSpaceOnUse"><stop stop-color="#FEC519"/><stop offset="1" stop-color="#E6A117"/></linearGradient><linearGradient id="paint2_linear_157_6990" x1="23.188" x2="24.906" y1="13.313" y2="17.063" gradientUnits="userSpaceOnUse"><stop offset="0" stop-color="#FFF7EB"/><stop offset="1" stop-color="#FFE7C2"/></linearGradient><linearGradient id="paint3_linear_157_6990" x1="17.071" x2="19.52" y1="13.759" y2="15.896" gradientUnits="userSpaceOnUse"><stop stop-color="#FFE599"/><stop offset="1" stop-color="#FACB3F"/></linearGradient><linearGradient id="paint4_linear_157_6990" x1="27.792" x2="29.694" y1="13.308" y2="15.422" gradientUnits="userSpaceOnUse"><stop stop-color="#26629E"/><stop offset="1" stop-color="#15395E"/></linearGradient><linearGradient id="paint5_linear_157_6990" x1="27.982" x2="28.573" y1="13.537" y2="15.098" gradientUnits="userSpaceOnUse"><stop stop-color="#FEC519"/><stop offset="1" stop-color="#E6A117"/></linearGradient><linearGradient id="paint6_linear_157_6990" x1="34.188" x2="35.906" y1="13.313" y2="17.063" gradientUnits="userSpaceOnUse"><stop offset="0" stop-color="#FFF7EB"/><stop offset="1" stop-color="#FFE7C2"/></linearGradient><linearGradient id="paint7_linear_157_6990" x1="28.071" x2="30.52" y1="13.759" y2="15.896" gradientUnits="userSpaceOnUse"><stop stop-color="#FFE599"/><stop offset="1" stop-color="#FACB3F"/></linearGradient><linearGradient id="paint8_linear_157_6990" x1="16.792" x2="18.694" y1="23.308" y2="25.422" gradientUnits="userSpaceOnUse"><stop stop-color="#26629E"/><stop offset="1" stop-color="#15395E"/></linearGradient><linearGradient id="paint9_linear_157_6990" x1="16.982" x2="17.573" y1="23.537" y2="25.098" gradientUnits="userSpaceOnUse"><stop stop-color="#FEC519"/><stop offset="1" stop-color="#E6A117"/></linearGradient><linearGradient id="paint10_linear_157_6990" x1="23.188" x2="24.906" y1="23.313" y2="27.063" gradientUnits="userSpaceOnUse"><stop offset="0" stop-color="#FFF7EB"/><stop offset="1" stop-color="#FFE7C2"/></linearGradient><linearGradient id="paint11_linear_157_6990" x1="17.071" x2="19.52" y1="23.759" y2="25.896" gradientUnits="userSpaceOnUse"><stop stop-color="#FFE599"/><stop offset="1" stop-color="#FACB3F"/></linearGradient><linearGradient id="paint12_linear_157_6990" x1="27.792" x2="29.694" y1="23.308" y2="25.422" gradientUnits="userSpaceOnUse"><stop stop-color="#26629E"/><stop offset="1" stop-color="#15395E"/></linearGradient><linearGradient id="paint13_linear_157_6990" x1="27.982" x2="28.573" y1="23.537" y2="25.098" gradientUnits="userSpaceOnUse"><stop stop-color="#FEC519"/><stop offset="1" stop-color="#E6A117"/></linearGradient><linearGradient id="paint14_linear_157_6990" x1="34.188" x2="35.906" y1="23.313" y2="27.063" gradientUnits="userSpaceOnUse"><stop offset="0" stop-color="#FFF7EB"/><stop offset="1" stop-color="#FFE7C2"/></linearGradient><linearGradient id="paint15_linear_157_6990" x1="28.071" x2="30.52" y1="23.759" y2="25.896" gradientUnits="userSpaceOnUse"><stop stop-color="#FFE599"/><stop offset="1" stop-color="#FACB3F"/></linearGradient></defs></svg>